<svg xmlns="http://www.w3.org/2000/svg" xmlns:xlink="http://www.w3.org/1999/xlink" width="100%" height="100%">
	<symbol id="icon-edit" viewBox="0 0 347 442">
		<g transform="translate(0 442) scale(.1 -.1)">
			<path d="m2088 4411c-83-27-52 20-1072-1641-537-874-981-1601-986-1616-16-42-34-965-20-1009 36-108 167-166 275-121 82 35 861 483 887 511 31 33 1941 3138 1965 3195 20 45 11 122-19 167-29 43-50 56-515 307-335 182-389 208-435 211-29 3-65 0-80-4zm372-579c107-58 197-106 198-108 6-5-234-389-242-388-17 2-426 228-426 235 0 5 52 94 116 198 109 177 118 189 138 179 12-6 109-58 216-116zm-465-718c118-64 215-118 215-121s-302-497-671-1098l-671-1093-181-103c-100-57-202-114-226-128l-44-24 8 248 7 249 671 1093c369 601 673 1093 675 1093 1 0 100-52 217-116z" />
			<path d="m1653 391c-51-13-96-44-128-89-56-81-33-196 54-257l43-30 846-2 847-3 45 23c134 69 137 251 6 332l-49 30-816 2c-449 1-830-2-848-6z" />
		</g>
	</symbol>
	<symbol id="icon-home" viewBox="0 0 725 808">
		<g transform="translate(0 808) scale(.1 -.1)">
			<path d="m3560 8059c-67-7-134-36-197-84-26-20-335-293-687-608s-1048-936-1546-1380c-498-445-926-831-952-859s-63-81-82-118c-70-133-67-89-73-1075-4-617-2-911 5-959 22-135 101-242 222-300 59-27 74-31 160-30 82 0 103 3 152 26 68 31 147 103 183 164 54 91 55 110 55 999l1 820 747 667c411 367 1042 930 1402 1252s657 586 660 585c3 0 127-105 275-235 326-284 367-308 505-308 81 0 93 3 163 37 164 81 248 249 211 423-28 134-50 159-459 509-121 104-278 241-350 304-73 64-152 124-180 137-63 29-144 41-215 33z" />
			<path d="m5189 6547c-150-63-238-184-247-337-8-136 41-241 153-332 80-65 162-92 264-86 339 20 485 432 236 667-80 76-148 104-260 108-77 3-98 0-146-20z" />
			<path d="m6220 5779c-74-15-145-56-203-119-91-98-125-225-93-348 31-120 49-142 360-416l169-149-6-180c-4-99-7-992-7-1984v-1803h-2820-2820v448c0 336-4 461-14 503-45 194-238 325-431 292-130-22-238-104-294-223l-26-55-3-664c-2-586-1-671 14-720 44-153 152-261 324-323l65-23 3115-3c3477-3 3190-9 3347 69 63 31 97 57 147 110 104 110 148 219 166 412 8 76 10 799 8 2247l-3 2135-23 62c-13 34-40 85-60 114-49 70-578 538-652 578-52 28-148 52-194 50-12-1-41-5-66-10z" />
		</g>
	</symbol>
	<symbol id="icon-cross" viewBox="0 0 738 737">
		<g transform="translate(0 737) scale(.1 -.1)">
			<path d="m399 7331c-178-57-320-211-359-392-27-122 2-283 69-387 17-26 663-679 1435-1452l1406-1405-1403-1405c-868-868-1416-1425-1436-1457-48-77-73-158-79-252-9-159 38-283 152-397 167-166 394-201 616-93 60 29 170 137 1477 1448l1411 1416 1424-1421c1537-1535 1447-1451 1593-1489 270-69 549 93 629 364 21 71 21 211 0 282-42 143 26 71-1489 1587l-1411 1414 1411 1411c1517 1517 1447 1442 1489 1586 21 71 21 211 0 282-52 177-188 312-368 364-44 13-84 16-160 13-110-5-181-26-255-76-23-15-447-432-943-927-497-495-1131-1127-1410-1405l-508-505-1412 1411c-1516 1513-1444 1446-1587 1488-74 22-219 20-292-3z" />
		</g>
	</symbol>
	<symbol id="icon-plus" viewBox="0 0 802 798">
		<g transform="translate(0 798) scale(.1 -.1)">
			<path d="m3850 7927c-177-60-316-221-349-401-8-41-11-526-11-1537v-1478l-3015-6-65-23c-124-45-217-116-281-215-103-159-113-341-30-512 62-125 163-217 296-267l60-23 1518-3 1517-2v-1489c0-1451 0-1490 20-1565 35-138 117-247 239-320 93-56 152-71 271-70 85 0 117 5 165 24 176 68 303 214 341 389 11 55 14 315 14 1548v1483l1513 2 1512 3 65 23c218 78 354 272 352 502-1 195-100 357-273 450-130 69-6 64-1666 67l-1503 4v1477c0 1264-2 1487-15 1547-39 183-165 328-340 390-96 34-240 35-335 2z" />
		</g>
	</symbol>
	<symbol id="icon-grid" viewBox="0 0 686 688">
		<g transform="translate(0 688) scale(.1 -.1)">
			<path d="m349 6850c-154-20-294-143-334-295-22-87-22-972 0-1060 33-123 108-215 223-272l57-28h535c531 0 535 0 590 22 85 35 162 109 207 201l38 76 3 488c2 294-1 510-7 542-32 171-170 301-346 326-79 11-880 11-966 0z" />
			<path d="m2932 6850c-129-19-265-127-314-247-23-58-23-61-26-553-2-310 1-512 7-542 26-119 109-226 219-280l67-33 517-3c502-2 519-2 579 18 117 40 204 122 251 237l23 58v515 515l-23 58c-44 109-127 190-243 239-53 22-61 22-529 24-261 1-499-1-528-6z" />
			<path d="m5521 6850c-134-20-247-107-310-240l-26-55v-535-535l32-66c39-80 120-159 200-197l58-27h535 535l68 32c120 57 202 164 226 297 14 77 15 897 1 986-28 172-154 302-328 339-61 13-903 13-991 1z" />
			<path d="m349 4261c-155-21-294-144-334-296-12-49-15-137-15-527 0-495 3-534 48-623 36-71 125-155 198-185l59-25 509-3c444-2 516-1 565 13 113 33 200 109 255 224l31 66 3 498c2 428 1 507-13 560-35 138-129 238-266 283-48 16-104 18-519 20-256 1-490-1-521-5z" />
			<path d="m2932 4260c-128-19-265-127-314-247l-23-58v-520c0-486 1-523 19-571 43-115 142-210 255-244 64-20 88-21 576-18l510 3 67 32c112 53 191 148 222 268 13 49 16 135 16 516 0 265-4 479-10 509-34 177-171 308-346 331-84 10-898 10-972-1z" />
			<path d="m5521 4260c-134-20-247-107-310-240l-26-55v-530-530l24-60c33-83 133-183 216-216l60-24h530 530l68 33c120 59 202 167 226 296 13 73 15 893 2 983-25 173-157 311-325 342-69 13-909 13-995 1z" />
			<path d="m323 1670c-102-21-213-101-268-194-52-89-55-122-55-631 0-521 2-542 63-644 37-62 108-122 187-160l55-26 495-3c357-3 510 0 550 8 147 32 255 132 300 278 19 60 20 94 20 541 0 518-3 547-57 640-55 94-158 166-271 190-62 13-953 14-1019 1z" />
			<path d="m2910 1669c-117-23-230-114-284-228l-31-66v-531-530l38-76c44-91 102-146 197-192l65-31h530 530l66 32c121 60 205 168 229 292 13 71 13 931 0 1002-25 132-112 243-238 302l-67 32-495 2c-272 1-515-3-540-8z" />
			<path d="m5502 1669c-122-24-230-110-285-227l-32-67-3-512c-3-497-2-513 18-574 39-115 106-189 220-243l65-31 490-3c340-2 508 0 550 8 160 31 288 167 315 336 13 76 13 901 0 977-26 162-143 290-304 333-40 11-152 14-521 13-258-1-489-5-513-10z" />
		</g>
	</symbol>
	<symbol id="icon-list" viewBox="0 0 691 641">
		<g transform="translate(0 641) scale(.1 -.1)">
			<path d="m300 6384c-114-31-211-113-264-224l-31-65v-301-300l37-76c45-91 103-147 196-191l67-32h3145 3145l70 34c89 44 157 113 198 199l32 67v295c0 329-1 335-72 438-41 60-105 111-183 144l-55 23-3115 2c-2719 2-3122 0-3170-13z" />
			<path d="m300 3794c-119-32-208-107-264-224l-31-65v-300-300l32-67c57-121 163-204 288-227 41-8 958-11 3135-11 3397 0 3135-5 3249 63 68 41 115 95 155 177l31 65 3 260c4 280-3 346-43 426-29 57-97 128-156 162-104 61 132 57-3254 56-2687 0-3097-2-3145-15z" />
			<path d="m306 1209c-62-15-153-68-197-116-22-24-55-74-72-111l-32-67-3-274c-3-253-2-278 18-342 27-89 96-180 170-225 114-70-155-64 3286-62l3109 3 77 37c94 45 155 104 200 196l33 66 3 266c4 285-2 338-45 424-35 70-112 142-191 179l-67 32-3125 2c-1862 0-3141-3-3164-8z" />
		</g>
	</symbol>
	<symbol id="icon-users" viewBox="0 0 776 667">
		<g transform="translate(0 667) scale(.1 -.1)">
			<path d="m5573 6629c-377-34-739-229-968-524-191-245-289-508-302-812-26-576 305-1111 832-1346 96-43 262-91 364-107 103-15 329-13 432 4 677 111 1179 701 1179 1386 0 538-296 1016-781 1261-143 72-325 122-504 139-120 11-119 11-252-1zm376-499c538-154 820-721 619-1244-56-145-190-317-323-412-177-127-428-191-641-164-233 29-415 119-570 282-122 129-205 287-240 459-23 112-15 322 15 429 99 343 391 608 736 670 88 16 320 4 404-20z" />
			<path d="m5535 6013c-245-64-446-217-545-414-42-82-82-226-75-266 8-45 66-93 111-93 73 0 108 35 134 135 35 137 138 270 260 337 102 57 161 70 303 67 81-2 129 1 144 9 85 47 82 171-5 210-27 11-75 16-172 18-74 2-144 0-155-3z" />
			<path d="m2395 5729c-394-40-745-207-1025-488-171-172-280-341-373-577-74-188-108-375-108-594 0-287 55-511 187-771 231-451 684-784 1180-869 375-64 724-12 1055 157 323 165 602 450 746 761 190 411 214 863 66 1277-178 500-571 878-1083 1039-178 57-456 85-645 65zm335-483c384-58 720-303 889-650 86-176 121-325 121-526 0-202-35-353-121-527-170-346-494-587-869-648-650-105-1256 326-1371 975-17 96-17 304 0 400 113 640 711 1072 1351 976z" />
			<path d="m2323 5056c-343-66-615-287-747-609-46-112-67-211-56-261 28-127 176-182 280-105 36 27 55 62 75 138 52 200 177 352 360 436 106 49 154 57 327 53l154-3 38 29c42 32 76 94 76 141 0 39-31 104-63 134-15 13-50 30-79 38-75 21-277 26-365 9z" />
			<path d="m4575 3421c-110-28-185-123-185-233 0-66 26-123 75-171 71-69 35-67 1054-67 721-1 932-4 991-14 361-65 648-338 724-689 9-40 20-118 25-175 6-66 16-113 27-130 63-101 157-144 261-122 67 15 123 58 157 121 29 51 29 53 23 188-23 555-399 1045-940 1226-210 70-168 68-1227 71-525 1-968-1-985-5z" />
			<path d="m1320 1864c-322-58-581-193-805-418-297-299-464-682-482-1103-7-161 4-201 74-262 57-50 99-64 179-59 74 5 130 37 177 104 23 33 29 55 38 139 25 258 51 369 123 521 58 121 113 201 210 302 136 142 246 212 424 272 148 49 213 52 1332 48 899-4 1033-6 1090-20 325-80 569-279 721-587 77-157 112-293 125-494 7-113 29-179 72-220 96-90 246-90 336-1 54 54 70 106 68 224-8 408-173 808-455 1106-227 240-496 386-820 444-106 19-153 20-1221 19-889-1-1126-4-1186-15z" />
		</g>
	</symbol>
	<symbol id="icon-species" viewBox="0 0 960 881">
		<g transform="translate(0 881) scale(.1 -.1)">
			<path d="m3163 8769c-219-28-400-125-572-304-221-232-353-529-407-920-22-163-15-481 14-645 121-671 504-1171 1018-1326 78-24 107-27 234-28 166-1 231 12 367 75 376 172 648 604 718 1140 19 144 22 404 5 534-81 643-411 1169-873 1391-105 50-176 70-297 84-95 11-118 11-207-1zm257-640c200-94 396-382 474-694 37-148 47-232 47-391 0-270-58-496-171-667-101-154-201-222-326-222-61 0-80 5-147 38-89 44-208 154-274 252-94 140-176 337-213 513-27 126-37 374-21 506 43 341 209 625 401 687 51 17 172 5 230-22z" />
			<path d="m6165 8759c-423-103-771-445-966-949-87-226-128-436-136-705-8-281 28-524 114-755 151-407 421-685 758-782 113-32 342-32 459 0 335 93 628 356 825 741 151 295 225 612 224 961-2 483-150 905-416 1186-135 143-262 226-427 279-75 25-103 28-240 31-85 2-173-1-195-7zm266-614c136-48 276-235 342-455 35-118 46-178 56-310 30-417-113-839-368-1083-103-98-180-138-277-145-92-6-154 21-245 106-108 101-195 274-241 482-20 90-23 132-23 300 0 145 5 217 18 282 56 281 156 489 317 661 141 151 290 208 421 162z" />
			<path d="m944 6196c-450-73-764-387-877-875-19-83-22-125-22-311 0-184 3-231 23-326 130-642 586-1194 1132-1369 168-54 309-71 462-55 467 47 809 366 924 860 32 133 43 383 25 522-40 295-144 578-303 820-245 373-618 644-993 722-105 22-277 27-371 12zm226-607c206-33 453-205 598-416 227-333 301-708 197-1007-119-342-473-399-835-132-222 163-416 494-470 802-16 91-8 317 14 399 62 225 202 348 416 364 8 0 44-4 80-10z" />
			<path d="m8430 6204c-644-59-1246-655-1403-1389-43-197-48-500-13-665 84-388 307-677 633-818 226-98 520-102 782-10 532 187 959 694 1100 1308 65 286 53 598-33 845-112 323-324 551-616 664-123 48-322 76-450 65zm227-634c137-48 229-160 278-338 23-81 31-293 15-389-42-265-187-543-379-724-198-189-415-281-587-252-182 31-303 152-360 358-22 80-30 308-14 400 31 176 125 399 230 547 190 267 481 441 705 421 33-3 83-13 112-23z" />
			<path d="m4630 5414c-388-46-711-199-994-473-172-167-266-308-391-586-241-537-561-1007-928-1364-188-183-291-320-386-516-167-344-212-721-129-1104 90-422 351-799 722-1043 289-191 594-288 951-305 160-7 338 13 547 62 296 70 501 95 768 95 298 0 490-24 805-99 205-49 305-62 473-62 282 0 506 45 742 149 229 100 384 206 561 382 276 275 434 605 480 999 14 128 7 373-15 491-63 344-227 654-472 890-190 183-266 263-370 394-227 283-457 657-604 986-115 254-181 368-300 515-180 221-469 417-757 513-164 55-278 73-483 77-102 2-201 1-220-1zm442-638c185-47 350-142 491-282 92-91 160-193 224-334 303-671 677-1223 1082-1599 176-164 279-320 335-505 53-174 59-401 17-573-120-486-555-828-1082-850-155-7-250 4-414 47-298 78-565 110-915 110-334 0-575-27-875-99-211-51-324-65-455-56-188 12-357 60-518 146-282 150-474 384-552 674-68 248-46 502 64 740 60 129 124 214 276 365 244 241 419 454 612 746 171 257 282 458 443 805 44 96 105 210 135 253 58 84 179 203 262 258 127 85 306 157 443 178 106 16 318 5 427-24z" />
			<path d="m5427 4040c-212-83-267-350-105-507 18-18 59-44 91-59 173-78 387 38 415 227 34 234-188 423-401 339z" />
			<path d="m5775 3407c-83-33-137-81-177-157-27-53-37-169-18-225 15-45 136-229 257-390 136-182 258-327 386-461 137-143 179-167 292-167 179-1 312 139 303 318-5 98-29 138-170 290-151 163-301 349-425 530-121 176-171 229-241 255-59 22-159 26-207 7z" />
		</g>
	</symbol>
	<symbol id="icon-expositions" viewBox="0 0 733 619">
		<g transform="translate(0 619) scale(.1 -.1)">
			<path d="m1945 6151c-90-16-154-76-179-168-25-90-73-178-132-237-66-68-116-97-224-131-95-30-141-65-171-130-15-33-19-65-19-172v-133h-87c-47 0-116-5-152-11-165-28-307-144-377-309-18-44-19-105-24-2235l-5-2190-210-5c-207-5-211-5-248-32-117-80-130-239-27-332 21-19 57-40 78-46 28-7 1093-9 3518-8l3479 3 43 29c141 95 123 306-30 371-29 12-79 15-233 15h-195v2153c0 2369 4 2216-62 2339-37 70-137 167-210 204-68 35-165 54-274 54h-91l-5 138c-4 129-6 142-32 186-32 55-80 88-161 111-85 24-150 60-208 113-72 68-103 119-138 224-36 110-62 148-126 179l-48 24-1705 1c-938 1-1723-1-1745-5zm3274-468c80-167 241-330 404-409l57-28v-281l-1-280-49-23c-160-75-326-240-406-404l-28-58h-1536-1536l-12 34c-19 52-102 173-167 244s-151 135-242 181l-63 31v278 277l70 34c138 67 278 202 366 351 24 41 44 81 44 88 0 9 314 12 1538 12h1538l23-47zm-3999-1065c0-113 3-138 21-175 30-62 77-96 170-123 92-26 176-77 234-141 58-63 81-104 111-199 33-106 62-146 128-176l51-24h1730c1652 0 1732 1 1770 19 63 28 101 80 130 176 57 186 169 293 371 353 58 18 79 30 111 65 50 54 63 107 63 252v105h88c48 0 92-4 98-8 33-22 34-42 34-1201v-1151h-820c-648 0-821 3-824 13-22 91-80 236-120 305-60 101-190 242-294 319-89 66-231 136-337 165-70 19-104 22-275 22-182 0-201-2-281-27-119-36-186-67-282-130-218-143-374-352-439-584l-23-83h-817-818v1162c0 1067 1 1163 17 1180 13 15 32 18 110 18h93v-132zm2637-1846c149-52 287-168 356-298 20-40 37-75 37-78s-266-6-591-6h-590l37 73c76 147 239 277 404 322 81 22 265 15 347-13zm-2267-1577v-765h-295-295v765 765h295 295v-765zm1020 0v-765h-295-295v765 765h295 295v-765zm1680 0v-765l-207 2-208 3-5 345c-6 382-5 377-74 438-83 73-201 68-280-11-63-64-66-81-66-451v-326h-205-205v765 765h625 625v-765zm1018 3-3-763-297-3-298-2v765 765h300 300l-2-762zm1020 0-3-763-297-3-298-2v765 765h300 300l-2-762z" />
			<path d="m2230 5461c-76-15-120-70-120-147 0-64 28-109 83-134 34-16 65-20 172-20h130l-379-379-3-58c-5-71 17-112 76-143 38-19 58-20 374-20 330 0 334 0 367 23 75 51 98 123 61 196-37 72-63 81-231 81h-144l191 193c160 160 193 198 198 229 14 75-18 137-89 169-37 17-69 18-346 18-168-1-321-4-340-8z" />
			<path d="m3516 5440c-73-26-127-63-188-127-240-258-90-685 262-745 196-34 396 74 482 259 44 92 51 217 19 322-28 91-95 181-178 237-80 55-116 65-238 70-83 4-110 1-159-16zm222-300c117-71 85-250-50-275-76-14-159 44-174 121-9 51 21 122 65 151s113 31 159 3z" />
			<path d="m4638 5446c-160-46-297-205-316-366-17-148 24-275 123-379 256-269 706-126 767 244 32 191-70 384-250 472-70 35-82 38-176 40-62 1-119-3-148-11zm215-312c15-10 36-38 48-61 29-60 19-115-30-165-47-47-95-57-157-33-115 44-128 199-22 266 41 25 121 22 161-7z" />
			<path d="m3580 1829c-48-19-93-62-116-113-41-87-28-171 38-242 76-83 190-95 285-31 141 96 119 315-39 381-42 18-130 20-168 5z" />
		</g>
	</symbol>
	<symbol id="icon-facilities" viewBox="0 0 729 786" xmlns="http://www.w3.org/2000/svg">
		<g transform="translate(0 786) scale(.1 -.1)">
			<path d="m3585 7483c-159-83-1415-791-1432-806-12-11-27-35-33-53-14-41 0-91 33-121 12-12 345-202 740-423 687-385 720-402 760-397 31 3 177 80 557 294 283 159 600 336 703 393 238 133 248 141 254 205 7 86 6 88-408 319-1190 667-1106 625-1174 589z" />
			<path d="m805 5912c-585-328-734-415-753-442l-22-33v-1537c0-1149 3-1546 12-1571 19-56 46-84 126-131 286-168 1319-739 1352-748 53-14 90-6 167 36l63 35v1532 1532l638 355c350 195 652 369 670 387 26 25 32 39 32 73 0 23-7 55-17 70-12 22-191 126-742 435-464 261-738 409-761 412-31 3-118-43-765-405zm91-1065 469-263 3-1308c2-1071 0-1307-11-1303-7 3-222 122-477 265l-465 261-3 1305c-1 738 2 1306 7 1306 4 0 219-118 477-263z" />
			<path d="m5684 6307c-18-7-351-191-741-410-541-304-713-405-726-427-27-44-22-104 11-139 15-17 301-184 662-386 349-196 636-359 638-363 1-4 3-693 5-1532l2-1524 60-35c49-29 72-36 125-39l65-3 660 371c805 452 758 424 787 474l23 41 3 1535c2 1078 0 1546-8 1572-13 45-36 62-255 183-88 49-403 225-699 392-297 167-549 303-560 302-12 0-35-5-52-12zm1196-2501v-1304l-475-266c-261-146-477-266-480-266s-4 588-3 1307l3 1307 465 262c256 144 471 262 478 263 9 1 12-266 12-1303z" />
			<path d="m3570 5117c-175-94-1381-774-1407-794-20-14-36-38-43-61-15-54-14-3013 1-3083 8-37 22-63 48-90 25-26 243-153 696-407 363-203 674-376 690-385 49-25 97-30 141-14 57 19 1383 764 1417 796 67 61 62-77 62 1638 0 1538 0 1552-20 1578-22 29-30 34-895 520-411 231-576 319-605 322s-52-2-85-20zm-550-1465 425-239 3-1311 2-1310-475 266-475 267v1308 1307l48-24c26-14 238-133 472-264zm1768-1019-3-1308-468-262c-258-145-473-263-478-263s-9 534-9 1303v1303l323 181c177 100 390 219 472 266 83 47 153 86 158 86 4 1 6-587 5-1306z" />
		</g>
	</symbol>
	<symbol id="icon-events" viewBox="0 0 871 742">
		<g transform="translate(0 742) scale(.1 -.1)">
			<path d="m1533 7396c-67-21-108-52-135-103-28-52-48-139-48-212 0-25-3-63-6-83l-7-38h-116c-160 0-429-18-527-35-239-41-484-209-579-397-18-38-42-103-52-145-17-74-18-202-17-2803 1-2951 2-3019 50-3117 31-64 175-214 259-270 81-54 166-96 250-123 70-23 72-23 1005-31 1207-10 4842-10 5740 0 683 8 696 9 765 31 153 49 300 142 401 253 70 78 99 126 119 202 26 94 34 939 35 3415 0 2189-3 2393-35 2505-57 198-299 404-555 470-73 19-245 33-502 41-115 3-208 9-208 13-10 176-22 277-36 306-41 86-156 143-266 131-84-8-143-42-188-106-23-33-25-44-28-187l-4-153h-258-257l-7 123c-9 160-17 192-58 234-121 127-334 120-426-14-26-36-27-44-30-190l-4-153h-1442-1443l-6 123c-7 147-25 211-70 255-79 77-240 94-335 36-86-54-108-107-123-293-4-64-9-117-9-118 0-2-110-3-243-3h-244l-12 133c-16 177-22 198-77 246-75 66-174 87-271 57zm851-928c3-35 8-97 11-138 9-107 21-146 61-190 89-98 293-101 389-6 53 54 65 95 72 254l6 133 1421-3c782-2 1428-7 1437-11 12-6 18-30 23-100 9-120 25-215 43-250 32-63 151-111 242-96 64 10 146 48 188 87 31 30 31 31 42 178 7 82 14 159 17 172l4 22h245 245l4-22c3-13 8-70 11-128 11-191 30-233 121-280 71-36 186-35 265 1 101 47 123 101 136 326l6 113h91c90 0 398-24 466-36 80-15 157-70 193-139 18-36 21-65 28-290 4-137 8-305 8-372l1-123h-3800-3800v384 384l67 62c102 96 113 99 385 110 128 5 254 10 280 10h47l5-52c33-316 35-321 166-389 88-45 211-21 293 59 62 59 67 77 74 242l6 150h248 247l6-62zm5776-1740c-1-222-5-1229-10-2240-10-2040-2-1862-79-1931-22-20-59-46-83-58-42-22-57-23-433-30-493-9-5704-11-6329-2l-467 6-62 41c-65 43-99 85-118 145-12 38-22 993-32 3319l-6 1152h3810 3809v-402z" />
			<path d="m4045 4531c-120-20-301-81-465-159-232-110-513-348-671-567-157-217-279-530-309-790-15-134-13-416 4-505 57-295 159-546 303-750 90-126 331-367 444-442 200-133 420-225 669-280 93-20 133-22 340-23 207 0 248 3 344 23 464 98 834 344 1118 743 128 180 232 427 279 664 21 105 24 146 23 335-1 193-4 228-28 345-63 303-170 528-373 780-236 294-619 530-993 611-85 18-596 29-685 15zm574-451c83-14 163-42 290-101 139-65 253-143 361-246 191-181 306-378 372-633 26-98 31-140 35-286 6-186-7-280-63-452-106-325-344-603-652-760-204-105-362-142-602-142-172 0-283 17-427 65-183 61-320 141-464 272-150 136-248 276-331 471-88 207-119 394-99 603 32 343 133 568 366 817 187 200 369 307 650 383 109 29 112 30 305 24 107-3 224-10 259-15z" />
			<path d="m4955 3431c-41-18-344-299-635-587l-155-153-150 141c-211 198-255 231-321 236-102 8-199-60-230-164-19-64-17-111 7-164 26-58 544-577 609-610 67-34 144-25 207 24 97 75 403 369 684 655l289 294v89c0 107-14 144-74 192-80 64-159 80-231 47z" />
		</g>
	</symbol>
	<symbol id="icon-announcements" viewBox="0 0 737 682" xmlns="http://www.w3.org/2000/svg">
		<g transform="translate(0 682) scale(.1 -.1)">
			<path d="m380 6592c-25-16-58-43-73-61l-27-33v-2728-2728l29-90c57-174 168-354 277-451 145-128 264-194 444-243 74-20 95-20 2260-25 1202-2 2376 0 2610 5l425 8 95 33c155 53 267 121 379 231 142 139 213 252 272 432l29 90v2039 2039l-36 39c-19 22-54 49-78 60-42 21-55 21-818 21h-776l-4 618c-4 680-2 660-67 715-17 14-48 32-69 39-29 10-544 13-2432 16l-2395 3-45-29zm4610-2947v-2575l31-95c40-125 78-211 129-285l41-60h-2020-2019l-73 31c-83 35-190 102-233 145s-110 150-145 233l-31 73v2554 2554h2160 2160v-2575zm1719-537c0-948-4-1795-7-1884l-7-161-44-89c-60-121-162-224-283-283-104-52-171-62-368-54-119 5-157 10-210 30-174 65-286 177-369 372l-31 73v1859 1859h660 660l-1-1722z" />
			<path d="m1479 5651c-204-6-206-6-248-34-128-85-116-265 23-340l41-22h1495c822 0 1526 4 1563 8 56 7 75 15 104 40 115 101 88 272-52 333-37 16-133 18-1380 19-737 1-1433-1-1546-4z" />
			<path d="m1477 4793-217-3-49-48c-48-47-71-95-71-152 1-44 36-104 86-149l48-42 3111 6 42 22c92 50 127 168 78 263-8 15-35 46-61 69l-47 41-1351-2c-743-2-1449-4-1569-5z" />
			<path d="m2815 3931c-87-9-127-38-162-116-17-37-18-95-21-817l-3-776 25-50c14-28 42-64 63-81l38-31h833 833l49 50 50 49v831 832l-21 30c-12 16-40 43-62 59l-40 29-761-2c-419 0-788-4-821-7zm1315-936v-545h-545-545v545 545h545 545v-545z" />
			<path d="m1325 3613c-54-3-76-9-101-28-38-29-84-117-84-160 0-75 48-148 124-187 37-19 55-20 400-16 337 3 364 4 400 23 56 28 94 81 108 147 11 53 10 58-18 114-23 46-39 64-74 84l-45 25-320 1c-176 0-351-1-390-3z" />
			<path d="m1239 2735c-71-44-89-79-89-173 0-61 3-74 31-111 53-75 55-75 479-75l375-1 45 25c35 20 51 38 74 84 28 56 29 61 18 114-14 66-52 119-108 147-36 19-62 20-404 23l-365 3-56-36z" />
			<path d="m1477 1583-217-3-49-48c-48-47-71-95-71-152 1-41 34-103 78-142l42-38h1573 1573l41 30c111 82 104 257-14 331l-38 24h-1350c-742 1-1448 0-1568-2z" />
		</g>
	</symbol>
	<symbol id="icon-back" viewBox="0 0 710 601" xmlns="http://www.w3.org/2000/svg">
		<g transform="translate(0 601) scale(.1 -.1)">
			<path d="m2843 5921c-29-10-72-30-95-46-24-15-624-608-1334-1319-987-987-1296-1303-1317-1342-74-141-74-303 0-432 17-31 475-497 1327-1349 1433-1433 1344-1351 1493-1373 315-44 568 237 488 544-8 32-27 79-42 104-17 31-421 442-1147 1170l-1121 1122 1127 1128c795 796 1132 1140 1148 1171 51 103 64 215 36 321-37 142-153 263-292 305-67 20-205 18-271-4z" />
			<path d="m3455 3430c-77-10-118-25-183-68-141-92-217-264-191-432 27-178 170-327 344-359 76-14 3183-15 3268-1 88 14 161 52 226 118 91 91 131 184 131 309 0 192-118 354-306 420-45 16-163 17-1639 19-874 1-1617-2-1650-6z" />
		</g>
	</symbol>
	<symbol id="icon-next" viewBox="0 0 710 601" xmlns="http://www.w3.org/2000/svg">
		<g transform="translate(0 601) scale(.1 -.1)">
			<path d="m4043 5950c-113-17-233-98-299-201-81-129-84-312-7-447 17-31 421-442 1147-1170l1121-1122-1127-1128c-795-796-1132-1140-1148-1171-34-69-50-131-50-201 0-125 41-227 126-314 88-89 179-126 309-126 89 0 155 17 224 56 29 17 515 495 1342 1323 991 992 1301 1308 1322 1347 74 141 74 303 0 432-17 31-475 497-1327 1349-1433 1433-1344 1351-1493 1373-37 5-72 9-78 9-5-1-33-5-62-9z" />
			<path d="m398 3440c-78-13-154-55-217-118-91-91-131-184-131-309 0-193 123-361 309-420 53-17 152-18 1681-18 1568 0 1627 1 1680 19 206 71 332 275 299 486-27 178-170 327-344 359-69 13-3201 14-3277 1z" />
		</g>
	</symbol>
	<symbol id="icon-play" viewBox="0 0 355 581">
		<g transform="translate(50 581) scale(.1 -.1)">
			<path d="m20 2911c0-1585 3-2881 6-2881 8 0 14 5 474 384 537 444 2202 1817 2782 2295l238 196-33 30c-18 17-249 208-512 425-264 217-556 458-650 536-215 178-1953 1611-2140 1765-77 63-146 118-152 123-10 6-13-572-13-2873z" />
		</g>
	</symbol>
	<symbol id="icon-pause" viewBox="0 0 562 663">
		<g transform="translate(20 670) scale(.1 -.1)">
			<path d="m514 6586c-94-19-190-70-267-145-79-75-116-136-149-241l-23-75v-2810c0-3071-4-2851 59-2985 40-87 156-203 246-248 116-58 173-64 555-60 319 4 344 6 398 26 197 73 332 222 373 414 11 52 13 537 14 2849 0 2742 0 2787-20 2863-42 167-144 293-291 365-48 23-112 44-149 50-91 15-668 12-746-3z" />
			<path d="m4344 6585c-181-39-337-177-406-360l-23-60-3-2825c-2-2787-2-2826 18-2903 46-183 165-311 358-386l67-26h365c396 0 407 1 529 58 82 38 194 148 239 233 66 128 62-98 62 2994s4 2866-62 2994c-45 86-157 195-242 235-114 55-166 61-521 60-226 0-338-4-381-14z" />
		</g>
	</symbol>
	<symbol id="icon-logout" viewBox="0 0 831 817">
		<g transform="translate(0 817) scale(.1 -.1)">
			<path d="m3640 8070c-135-10-222-32-337-85-116-55-170-91-262-179-124-120-204-251-258-423l-28-88v-880-880l27-45c55-93 135-142 241-148 60-4 75-1 132 27 41 20 78 48 100 75 68 83 65 45 65 910 0 872 0 873 65 970 37 56 97 112 150 138 71 36 119 38 1093 37h957l-210-73c-115-39-228-81-250-93-168-88-305-257-362-448-17-57-18-193-21-2678l-2-2618-1125 6-67 32c-118 56-195 152-218 272-6 34-10 349-10 836 0 888 4 842-80 926-73 73-100 84-205 84-80 0-95-3-136-27-56-33-106-88-131-145-18-41-19-78-16-910l3-868 28-88c100-321 330-552 647-651 118-37 276-46 840-45h465l6-203c6-227 17-285 77-408 47-97 194-248 291-299 132-70 286-95 445-72 106 15 2062 664 2193 728 165 80 294 225 357 402l31 86 3 3110c3 3484 9 3180-71 3338-32 62-63 103-127 167-129 129-240 185-415 209-88 13-3710 13-3885 1zm3859-588c19-9 43-33 53-52 17-33 18-144 17-3045 0-2388-3-3017-13-3045-7-19-27-45-45-57-17-12-488-174-1046-360l-1014-338-43 15c-27 10-50 27-65 49l-23 34v3035 3034l38 38c35 36 80 52 1047 373 556 185 1021 337 1035 337s40-8 59-18z" />
			<path d="m1520 6063c-39-13-138-108-700-667-360-358-669-671-686-696-55-77-62-193-19-284 24-51 1325-1346 1381-1374 64-32 136-39 209-17 82 24 166 107 190 190 21 70 15 146-16 208-14 27-161 183-417 440l-397 397h1271 1270l52 26c142 71 201 246 132 390-26 53-112 125-169 143-28 8-388 11-1297 11h-1259l401 403c446 447 440 439 438 567-1 81-20 126-79 189-78 83-195 112-305 74z" />
		</g>
	</symbol>
	<symbol id="icon-trash" viewBox="0 0 436 532">
		<g transform="translate(0 532) scale(.1 -.1)">
			<path d="m1580 5310c-41-4-94-15-118-23-229-86-362-263-388-518l-6-66-297-6c-316-6-364-13-467-62-64-31-160-118-208-188-142-206-120-492 50-676 30-32 83-77 117-100l64-41 6-143c4-78 7-757 7-1509v-1366l31-89c40-112 66-163 122-240 81-110 220-207 354-248 26-9 113-20 193-25 185-12 2076-13 2275 0 231 14 333 58 480 205 74 73 99 106 133 175 23 47 51 121 63 165 21 80 21 84 26 1577l5 1498 46 22c61 31 161 131 205 206 184 315 20 723-328 816-46 13-131 18-357 23l-298 6-5 36c-30 211-72 311-174 411-49 49-93 80-154 110-75 37-95 43-188 51-123 10-1081 9-1189-1zm1211-456c29-26 39-48 48-105l8-49h-668-669v36c0 39 23 96 47 115 29 25 106 28 656 25 529-3 558-4 578-22zm1080-633c30-30 39-47 39-72 0-39-29-93-59-109-31-16-3328-9-3357 7-12 7-29 29-39 49-14 30-15 43-6 74 23 78 0 74 490 80 240 3 989 6 1665 8l1228 2 39-39zm-298-1203c9-728 8-1948-2-2188-7-173-9-188-33-236-29-56-78-103-138-134-39-20-57-20-1112-19-590 0-1132 4-1204 8-119 6-135 9-171 33-52 34-108 119-122 186-8 38-11 462-11 1487v1435h1393 1394l6-572z" />
			<path d="m1370 3383c-41-21-62-40-85-77l-30-49v-1176c0-945 3-1185 13-1220 31-101 129-158 240-140 72 11 116 41 143 95 33 69 38 235 38 1259 0 978-6 1185-36 1238-32 54-91 88-164 94-56 4-71 1-119-24z" />
			<path d="m2080 3387c-24-12-57-39-73-59-26-33-31-48-39-137-5-55-7-594-6-1198 3-1004 5-1102 21-1149 28-84 92-124 197-126 76-1 134 30 173 94 28 45 30 54 39 225 6 108 8 579 5 1195-6 986-6 1018-25 1055-57 110-188 155-292 100z" />
			<path d="m2813 3399c-17-5-57-32-88-60l-56-52 4-1206c2-663 7-1219 12-1235 21-75 148-146 235-131 43 7 110 53 143 96 10 15 23 46 28 70 13 59 23 1910 12 2176l-8 212-30 43c-54 78-159 114-252 87z" />
		</g>
	</symbol>
	<symbol id="icon-user" viewBox="0 0 771 748">
		<g transform="translate(0 748) scale(.1 -.1)">
			<path d="m3534 6785c-730-114-1299-603-1507-1295-48-160-68-280-74-460-12-325 50-604 198-898 94-188 178-302 339-462 156-156 273-243 450-334 271-140 543-206 845-206 509 0 973 199 1331 572 266 278 434 629 488 1026 70 506-89 1042-426 1431-252 292-617 513-982 596-201 45-482 58-662 30zm544-494c370-82 690-314 882-641 78-133 144-321 170-485 16-100 14-324-5-428-116-657-676-1129-1340-1129-593 0-1114 379-1293 942-39 124-51 182-60 310-39 517 208 998 652 1269 286 175 660 236 994 162z" />
			<path d="m3540 6049c-260-43-531-209-686-419-113-153-206-377-206-496 0-123 131-209 245-160 59 25 86 66 118 175 47 164 103 257 218 363 156 145 362 212 572 187 117-14 159-7 206 34 66 58 81 140 40 218-29 54-70 79-156 96-75 14-269 15-351 2z" />
			<path d="m2480 3020c-576-41-1099-357-1407-850-163-261-260-588-264-886-1-105 0-115 27-163 96-177 343-166 422 19 13 30 22 81 26 155 20 332 155 632 387 864 228 227 496 352 819 381 156 13 2435 13 2593-1 458-40 850-304 1060-716 89-175 131-329 143-529 9-157 45-228 139-277 49-25 143-27 196-5 46 20 100 74 124 124 35 75 15 341-42 554-83 309-233 569-462 800-280 282-606 448-1016 517-89 15-235 17-1365 19-696 1-1317-2-1380-6z" />
		</g>
	</symbol>
	<symbol id="icon-checkmark" viewBox="0 0 512 512">
		<g transform="translate(0 512) scale(.1 -.1)">
			<path d="m4435 4464c-16-8-394-378-840-822-1562-1556-1616-1609-1660-1622-91-26-70-44-666 563-298 303-556 560-573 570-41 23-113 22-151-2-57-36-510-452-527-484-21-39-22-87-4-132 18-43 887-956 1409-1482 343-345 395-393 432-402 92-23-17-124 1676 1561 1184 1178 1561 1559 1573 1589 40 100 26 123-257 406-132 134-256 250-273 258-41 19-101 19-139-1z" />
		</g>
	</symbol>
	<symbol id="icon-location" viewBox="0 0 442 474">
		<g transform="translate(0 474) scale(.1 -.1)">
			<path d="m2026 4589c-727-84-1307-716-1308-1424 0-158 22-277 92-487 179-539 706-1512 1341-2476l54-82 17 22c71 92 507 793 680 1093 459 796 713 1361 784 1740 21 112 14 316-15 452-121 560-546 991-1116 1132-157 38-359 50-529 30zm360-695c285-74 505-308 570-607 23-103 21-282-5-378-76-293-287-509-571-586-99-27-274-24-370 6-142 44-251 112-350 218-137 147-206 313-217 528-21 405 250 757 640 831 82 15 219 10 303-12z"/>
		</g>
	</symbol>
	<symbol id="icon-locate" viewBox="0 0 401 419">
		<g transform="translate(0 419) scale(.1 -.1)">
			<path d="m3135 3904c-16-2-66-9-110-15-190-25-494-111-797-225-660-249-1597-751-2028-1088-83-65-160-147-160-170 1-61 89-64 485-21 382 42 472 48 700 49 187 0 264-4 350-18 536-88 729-335 760-976 8-166-6-409-46-770-45-409-41-530 19-530 37 0 177 164 309 362 570 854 1060 1947 1169 2605 21 126 25 362 7 439-44 186-142 292-317 341-50 14-282 25-341 17z"/>
		</g>
	</symbol>
</svg>
