<svg xmlns="http://www.w3.org/2000/svg" xmlns:xlink="http://www.w3.org/1999/xlink" width="100%" height="100%">

	<symbol id="icon-newtab" viewBox="0 0 256 256" xmlns="http://www.w3.org/2000/svg">
		<g transform="translate(0 256) scale(.1 -.1)">
			<path d="m395 2283c-49-25-86-65-111-118l-24-50v-835c0-819 1-836 21-880 25-55 62-96 111-121 36-18 70-19 888-19s852 1 888 19c49 25 86 66 111 121 19 42 21 65 21 378 0 369 0 371-65 392-44 15-80 4-110-32l-25-30v-304c0-291-1-305-20-324-20-20-33-20-800-20h-779l-21 22c-20 22-20 31-20 800 0 765 0 778 20 798 19 19 33 20 324 20h304l30 25c36 30 47 66 32 110-21 65-22 65-402 65-293-1-347-3-373-17z"/>
			<path d="m1619 2271c-21-22-29-39-29-66 0-88 35-105 217-105h138l-788-788 6-47c7-63 39-95 102-102l47-6 386 387c213 212 391 386 395 386s7-59 7-130c0-174 18-210 105-210 27 0 44 8 66 29l29 29v297 297l-58 58h-297-297l-29-29z"/>
		</g>
	</symbol>
	<symbol id="icon-download" viewBox="0 0 1024 1024" xmlns="http://www.w3.org/2000/svg">
		<g transform="translate(0 1024) scale(.1 -.1)">
			<path d="m5041 9379c-169-33-308-175-341-348-7-35-10-751-10-2105v-2051l-722 721c-440 439-741 732-768 747-215 123-485 36-598-192-35-71-37-80-37-170 0-116 19-177 80-258 23-32 535-549 1136-1149 1195-1192 1129-1132 1273-1157 49-8 83-8 132 0 144 25 78-35 1273 1157 601 600 1113 1117 1136 1149 61 81 80 142 80 258 0 90-2 99-37 170-113 228-383 315-598 192-27-15-328-308-767-747l-723-721v2051c0 1354-3 2070-10 2105-34 178-171 315-349 349-61 11-88 11-150-1z"/>
			<path d="m1201 4259c-171-33-309-175-341-352-8-38-10-363-7-995 3-923 4-938 25-1034 119-523 503-899 1027-1005 86-17 236-18 3215-18s3129 1 3215 18c525 106 908 481 1027 1005 21 96 22 111 25 1034 3 632 1 957-7 995-25 138-115 258-234 314-125 59-241 60-364 4-106-49-176-124-224-244l-23-56-10-1900-32-67c-44-94-109-160-202-206l-75-37h-3096-3096l-75 37c-93 46-158 112-202 206l-32 67-10 1900-23 56c-48 119-118 195-223 244-91 41-169 52-258 34z"/>
		</g>
	</symbol>
	<symbol id="icon-plus" viewBox="0 0 802 798">
		<g transform="translate(0 798) scale(.1 -.1)">
			<path d="m3850 7927c-177-60-316-221-349-401-8-41-11-526-11-1537v-1478l-3015-6-65-23c-124-45-217-116-281-215-103-159-113-341-30-512 62-125 163-217 296-267l60-23 1518-3 1517-2v-1489c0-1451 0-1490 20-1565 35-138 117-247 239-320 93-56 152-71 271-70 85 0 117 5 165 24 176 68 303 214 341 389 11 55 14 315 14 1548v1483l1513 2 1512 3 65 23c218 78 354 272 352 502-1 195-100 357-273 450-130 69-6 64-1666 67l-1503 4v1477c0 1264-2 1487-15 1547-39 183-165 328-340 390-96 34-240 35-335 2z" />
		</g>
	</symbol>
	<symbol id="icon-hide" viewBox="0 0 981 592" xmlns="http://www.w3.org/2000/svg">
		<g transform="translate(0 592) scale(.1 -.1)">
			<path d="m4520 5903c-253-15-669-77-940-139-643-148-1329-429-1847-755l-92-58-578 280c-329 160-600 285-629 292-71 15-148-3-208-49-40-30-57-57-128-199-93-186-103-234-73-326 33-97 57-113 503-328 221-107 402-196 402-198s-76-78-168-170c-480-479-742-934-742-1293 0-486 502-1174 1275-1751 799-595 1787-1002 2780-1143 355-51 900-71 1251-47 967 67 1924 366 2723 851l101 61 590-285c325-157 610-290 634-296 27-6 62-6 88-1 120 24 154 59 253 262 75 153 79 166 79 228 0 79-33 153-88 197-19 16-216 116-438 223s-404 195-405 196c-1 0 89 93 200 205 214 216 331 354 451 535 245 366 333 662 277 933-134 647-864 1440-1831 1990-786 447-1673 712-2615 782-126 9-688 11-825 3zm720-549c763-108 1428-597 1780-1309 255-515 320-1090 188-1660-11-49-23-95-27-101-4-8-138 53-386 172-208 102-383 188-388 193-4 4-3 46 3 92 18 129 14 336-9 469-113 649-606 1154-1236 1266-120 21-355 24-465 5-358-60-695-249-918-513l-31-38-383 185c-210 102-386 189-390 193-19 19 199 290 341 423 396 372 888 594 1416 639 128 11 371 3 505-16zm-2192-1953 379-183-4-197c-5-168-2-213 15-317 28-160 71-293 143-439 147-300 380-534 674-680 196-97 322-133 547-156 244-25 533 29 766 143 155 76 326 200 435 317 26 28 51 51 55 51 11 0 782-374 782-380 0-16-144-193-232-285-407-426-930-677-1513-726-508-43-1053 104-1480 399-544 376-896 933-1016 1609-27 150-37 489-20 655 11 107 55 351 67 370 7 11-36 31 402-181z"/>
		</g>
	</symbol>
	<symbol id="icon-show" viewBox="0 0 980 592" xmlns="http://www.w3.org/2000/svg">
		<g transform="translate(0 592) scale(.1 -.1)">
			<path d="m4515 5904c-872-67-1659-287-2411-673-792-407-1461-965-1830-1526-121-184-196-342-246-520-32-113-32-304 0-423 88-327 314-680 667-1041 1097-1124 2797-1780 4432-1711 478 20 833 72 1288 187 1281 323 2502 1121 3097 2023 185 280 288 551 288 755 0 395-345 965-875 1446-902 817-2088 1327-3405 1465-147 15-871 28-1005 18zm785-542c241-46 413-102 626-207 393-192 709-475 947-848 561-876 502-2055-143-2865-99-124-242-271-353-361-343-279-784-463-1219-510-141-16-409-13-545 4-431 57-848 236-1178 507-96 79-271 255-350 353-269 333-453 754-515 1178-76 513 10 1039 242 1496 337 661 969 1130 1688 1251 170 29 164 28 440 25 202-3 277-8 360-23z"/>
			<path d="m4754 4500c-445-47-846-288-1093-657-110-164-197-378-238-588-27-139-24-445 6-585 101-472 386-853 792-1059 222-113 431-163 679-163 177 0 303 20 465 73 226 75 418 193 584 359 216 215 355 476 422 790 31 143 33 435 5 585-90 484-397 893-827 1102-243 119-531 171-795 143z"/>
		</g>
	</symbol>
	<symbol id="icon-copy" viewBox="0 0 219 238" xmlns="http://www.w3.org/2000/svg">	
		<g transform="translate(0 238) scale(.1 -.1)">
			<path d="m399 2331c-47-47-33-132 26-159 19-9 217-12 780-12h755v-866-866l29-29c32-32 71-38 116-17 57 26 55-10 55 966v899l-23 34c-12 18-38 44-56 56l-34 23h-809-810l-29-29z"/>
			<path d="m105 2046c-37-16-70-52-84-89-8-19-11-315-11-928 0-882 0-901 20-939 13-26 34-47 60-60 38-20 57-20 841-20h802l42 25c80 46 75-19 75 1002 0 1029 6 956-80 1001l-44 22h-796c-640-1-801-3-825-14zm1543-1013-3-818h-715-715l-3 818-2 817h720 720l-2-817z"/>
		</g>
	</symbol>
	<symbol id="icon-back" viewBox="0 0 710 601" xmlns="http://www.w3.org/2000/svg">
		<g transform="translate(0 601) scale(.1 -.1)">
			<path d="m2843 5921c-29-10-72-30-95-46-24-15-624-608-1334-1319-987-987-1296-1303-1317-1342-74-141-74-303 0-432 17-31 475-497 1327-1349 1433-1433 1344-1351 1493-1373 315-44 568 237 488 544-8 32-27 79-42 104-17 31-421 442-1147 1170l-1121 1122 1127 1128c795 796 1132 1140 1148 1171 51 103 64 215 36 321-37 142-153 263-292 305-67 20-205 18-271-4z" />
			<path d="m3455 3430c-77-10-118-25-183-68-141-92-217-264-191-432 27-178 170-327 344-359 76-14 3183-15 3268-1 88 14 161 52 226 118 91 91 131 184 131 309 0 192-118 354-306 420-45 16-163 17-1639 19-874 1-1617-2-1650-6z" />
		</g>
	</symbol>
	<symbol id="icon-next" viewBox="0 0 710 601" xmlns="http://www.w3.org/2000/svg">
		<g transform="translate(0 601) scale(.1 -.1)">
			<path d="m4043 5950c-113-17-233-98-299-201-81-129-84-312-7-447 17-31 421-442 1147-1170l1121-1122-1127-1128c-795-796-1132-1140-1148-1171-34-69-50-131-50-201 0-125 41-227 126-314 88-89 179-126 309-126 89 0 155 17 224 56 29 17 515 495 1342 1323 991 992 1301 1308 1322 1347 74 141 74 303 0 432-17 31-475 497-1327 1349-1433 1433-1344 1351-1493 1373-37 5-72 9-78 9-5-1-33-5-62-9z" />
			<path d="m398 3440c-78-13-154-55-217-118-91-91-131-184-131-309 0-193 123-361 309-420 53-17 152-18 1681-18 1568 0 1627 1 1680 19 206 71 332 275 299 486-27 178-170 327-344 359-69 13-3201 14-3277 1z" />
		</g>
	</symbol>
	<symbol id="icon-edit" viewBox="0 0 347 442">
		<g transform="translate(0 442) scale(.1 -.1)">
			<path d="m2088 4411c-83-27-52 20-1072-1641-537-874-981-1601-986-1616-16-42-34-965-20-1009 36-108 167-166 275-121 82 35 861 483 887 511 31 33 1941 3138 1965 3195 20 45 11 122-19 167-29 43-50 56-515 307-335 182-389 208-435 211-29 3-65 0-80-4zm372-579c107-58 197-106 198-108 6-5-234-389-242-388-17 2-426 228-426 235 0 5 52 94 116 198 109 177 118 189 138 179 12-6 109-58 216-116zm-465-718c118-64 215-118 215-121s-302-497-671-1098l-671-1093-181-103c-100-57-202-114-226-128l-44-24 8 248 7 249 671 1093c369 601 673 1093 675 1093 1 0 100-52 217-116z" />
			<path d="m1653 391c-51-13-96-44-128-89-56-81-33-196 54-257l43-30 846-2 847-3 45 23c134 69 137 251 6 332l-49 30-816 2c-449 1-830-2-848-6z" />
		</g>
	</symbol>
	<symbol id="icon-checkmark" viewBox="0 0 512 512">
		<g transform="translate(0 512) scale(.1 -.1)">
			<path d="m4435 4464c-16-8-394-378-840-822-1562-1556-1616-1609-1660-1622-91-26-70-44-666 563-298 303-556 560-573 570-41 23-113 22-151-2-57-36-510-452-527-484-21-39-22-87-4-132 18-43 887-956 1409-1482 343-345 395-393 432-402 92-23-17-124 1676 1561 1184 1178 1561 1559 1573 1589 40 100 26 123-257 406-132 134-256 250-273 258-41 19-101 19-139-1z" />
		</g>
	</symbol>
	<symbol id="icon-refresh" viewBox="0 0 717 627">
		<g transform="translate(0 627) scale(.1 -.1)">
			<path d="m1795 5607c-77-30-128-77-171-157-29-56-25-171 8-235 33-63 79-108 143-137l50-23 1783-3 1782-2v-1217-1217l-347 346c-322 320-352 347-406 367-68 25-128 27-188 6-101-36-169-112-190-213-14-71 1-148 42-212 36-57 1193-1213 1234-1233 84-41 191-40 272 2 22 11 299 281 635 618 655 657 648 647 648 764 0 112-52 199-151 254-46 26-65 30-129 30-120 0-129-7-512-391l-338-339v1376c0 1524 4 1432-66 1523-26 34-54 56-98 77l-61 29-1955-1c-1471 0-1963-3-1985-12z"/>
			<path d="m1465 4483c-104-25-72 3-713-636-371-370-622-628-634-652-26-49-35-150-18-208 19-68 77-137 144-171 47-25 70-30 124-30 121 1 128 6 510 387l342 342v-1383c0-1331 1-1384 19-1432 28-74 73-125 143-159l61-31h1951c1611 1 1958 3 1989 14 60 22 105 57 142 111 100 148 45 341-120 417l-50 23-1782 3-1783 2v1217 1217l343-341c384-384 388-387 513-387 54 1 82 6 115 23 100 51 160 145 162 250 1 83-18 134-72 198-27 32-303 311-613 620-434 433-574 567-609 582-46 20-130 33-164 24z"/>
		</g>
	</symbol>
	<symbol id="icon-search" viewBox="0 0 343 341">
		<g transform="translate(0 341) scale(.1 -.1)">
			<path d="m1305 3370c-368-38-723-230-950-513-206-257-308-551-308-887 1-268 67-510 201-735 276-463 782-737 1317-712 234 10 473 82 671 203l76 46 357-355c196-195 372-363 391-373 24-13 57-19 106-19 61 0 77 4 120 30 96 60 138 179 99 283-15 39-76 105-377 408l-360 362 57 96c169 283 234 659 170 986-100 509-458 923-960 1108-164 60-427 91-610 72zm395-499c41-12 125-46 185-76 285-141 483-413 531-730 19-124 17-210-6-323-75-369-336-640-700-727-419-100-875 114-1079 505-81 157-113 286-113 460 1 309 146 586 398 760 86 59 228 122 329 144 104 23 354 16 455-13z"/>
		</g>
	</symbol>
	<symbol id="icon-cross" viewBox="0 0 738 737">
		<g transform="translate(0 737) scale(.1 -.1)">
			<path d="m399 7331c-178-57-320-211-359-392-27-122 2-283 69-387 17-26 663-679 1435-1452l1406-1405-1403-1405c-868-868-1416-1425-1436-1457-48-77-73-158-79-252-9-159 38-283 152-397 167-166 394-201 616-93 60 29 170 137 1477 1448l1411 1416 1424-1421c1537-1535 1447-1451 1593-1489 270-69 549 93 629 364 21 71 21 211 0 282-42 143 26 71-1489 1587l-1411 1414 1411 1411c1517 1517 1447 1442 1489 1586 21 71 21 211 0 282-52 177-188 312-368 364-44 13-84 16-160 13-110-5-181-26-255-76-23-15-447-432-943-927-497-495-1131-1127-1410-1405l-508-505-1412 1411c-1516 1513-1444 1446-1587 1488-74 22-219 20-292-3z" />
		</g>
	</symbol>
</svg>
